<svg xmlns="http://www.w3.org/2000/svg" viewBox="0 0 1280 720" width="100%" height="100%" style="background:#0B0E14; font-family: 'Inter', system-ui, -apple-system, sans-serif;">
  <defs>
    <linearGradient id="bg-canvas-1" x1="0%" y1="0%" x2="100%" y2="100%">
      <stop offset="0%" stop-color="#0B0E14" />
      <stop offset="50%" stop-color="#141822" />
      <stop offset="100%" stop-color="#0E121B" />
    </linearGradient>
    <linearGradient id="box-warn" x1="0%" y1="0%" x2="0%" y2="100%">
      <stop offset="0%" stop-color="#261418" />
      <stop offset="100%" stop-color="#140C0F" />
    </linearGradient>
    <filter id="shadow-1" x="-5%" y="-5%" width="110%" height="110%">
      <feDropShadow dx="0" dy="6" stdDeviation="10" flood-color="#000" flood-opacity="0.6"/>
    </filter>
  </defs>

  <rect width="1280" height="720" fill="url(#bg-canvas-1)" rx="16"/>
  <rect width="1274" height="714" x="3" y="3" fill="none" stroke="#222938" stroke-width="2" rx="14"/>

  <!-- Tiêu đề -->
  <g transform="translate(640, 45)" text-anchor="middle">
    <rect x="-480" y="-25" width="960" height="50" rx="25" fill="#141926" stroke="rgba(242, 54, 69, 0.4)" stroke-width="1.8"/>
    <text y="7" font-size="19" font-weight="800" fill="#FF707E" letter-spacing="0.5">
      BẪY CHỈ BÁO: TÍN HIỆU ĐI CHẬM HƠN GIÁ THỰC TẾ &amp; HẬU QUẢ VỚI F0
    </text>
  </g>

  <!-- So sánh 2 bên: Camera Trực Tiếp vs Bản Tin Phát Lại -->
  <!-- Bên Trái: Nến Thực Tế (Live Camera) -->
  <g transform="translate(50, 95)" filter="url(#shadow-1)">
    <rect width="560" height="555" rx="14" fill="#0D1E26" stroke="#00E5FF" stroke-width="2"/>
    <rect width="560" height="48" rx="14" fill="#00E5FF" fill-opacity="0.2"/>
    <path d="M 0 34 L 0 48 L 560 48 L 560 34 Z" fill="#00E5FF" fill-opacity="0.2"/>
    <circle cx="28" cy="24" r="12" fill="#089981"/>
    <text x="28" y="28" font-size="13" font-weight="900" fill="#FFFFFF" text-anchor="middle">✓</text>
    <text x="50" y="29" font-size="15.5" font-weight="800" fill="#00E5FF">GIÁ NGUYÊN BẢN: CAMERA TRỰC TIẾP (LIVE STREAM)</text>

    <!-- Biểu đồ nến thật -->
    <g transform="translate(20, 65)">
      <rect width="520" height="150" rx="8" fill="#080B10" stroke="#16303D" stroke-width="1.2"/>
      
      <!-- Cây nến đang chạy tăng -->
      <line x1="60" y1="90" x2="60" y2="130" stroke="#089981" stroke-width="2.5"/>
      <rect x="51" y="95" width="18" height="28" fill="#089981" rx="1.5"/>

      <line x1="120" y1="75" x2="120" y2="120" stroke="#089981" stroke-width="2.5"/>
      <rect x="111" y="80" width="18" height="32" fill="#089981" rx="1.5"/>

      <line x1="180" y1="50" x2="180" y2="105" stroke="#089981" stroke-width="2.5"/>
      <rect x="171" y="55" width="18" height="42" fill="#089981" rx="1.5"/>

      <!-- Nến bứt phá mạnh ngay lúc này -->
      <line x1="240" y1="20" x2="240" y2="85" stroke="#089981" stroke-width="3"/>
      <rect x="230" y="25" width="20" height="52" fill="#089981" rx="1.5"/>

      <circle cx="240" cy="22" r="5" fill="#00E5FF"/>
      <text x="252" y="26" font-size="12" fill="#00E5FF" font-weight="700">Giá đang chạy NGAY TẠI GIÂY NÀY!</text>

      <!-- Volume tương ứng -->
      <line x1="10" y1="125" x2="510" y2="125" stroke="#1c2436"/>
      <rect x="54" y="132" width="12" height="14" fill="#089981"/>
      <rect x="114" y="130" width="12" height="16" fill="#089981"/>
      <rect x="174" y="126" width="12" height="20" fill="#089981"/>
      <rect x="234" y="120" width="12" height="26" fill="#00E5FF"/>
      <text x="18" y="142" font-size="9.5" fill="#00E5FF" font-weight="800">VOLUME</text>
    </g>

    <!-- Điểm mạnh cốt lõi -->
    <g transform="translate(24, 235)">
      <rect width="512" height="65" rx="8" fill="#0B161F" stroke="#183648"/>
      <text x="16" y="25" font-size="14" font-weight="800" fill="#FFFFFF">• Phản ánh ngay lập tức (Không trễ nhịp):</text>
      <text x="16" y="48" font-size="13.5" fill="#26E7A6">Từng lệnh mua bán khớp tại thời điểm thực đều hiện lên nến.</text>

      <rect y="76" width="512" height="65" rx="8" fill="#0B161F" stroke="#183648"/>
      <text x="16" y="101" font-size="14" font-weight="800" fill="#FFFFFF">• Thấy rõ điểm bắt đầu bứt phá (Early Entry):</text>
      <text x="16" y="124" font-size="13.5" fill="#00E5FF">Vào lệnh sớm ngay chân sóng, điểm dừng lỗ (Stop Loss) siêu ngắn.</text>

      <rect y="152" width="512" height="65" rx="8" fill="#0B161F" stroke="#183648"/>
      <text x="16" y="177" font-size="14" font-weight="800" fill="#FFFFFF">• Nhận diện áp lực mua/bán thực chất:</text>
      <text x="16" y="200" font-size="13.5" fill="#CAD4E0">Khối lượng đi cùng nến xác nhận dòng tiền thật của cá mập.</text>

      <rect y="228" width="512" height="65" rx="8" fill="#0B161F" stroke="#183648"/>
      <text x="16" y="253" font-size="14" font-weight="800" fill="#FFFFFF">• Không bị nhiễu sóng và không phân tâm:</text>
      <text x="16" y="276" font-size="13.5" fill="#F0B90B">Tâm lý sáng suốt, không bị các tín hiệu giả đánh lừa.</text>
    </g>
  </g>

  <!-- Bên Phải: Chỉ Báo Trễ (Delayed Broadcast) -->
  <g transform="translate(670, 95)" filter="url(#shadow-1)">
    <rect width="560" height="555" rx="14" fill="url(#box-warn)" stroke="#F23645" stroke-width="2"/>
    <rect width="560" height="48" rx="14" fill="#F23645" fill-opacity="0.25"/>
    <path d="M 0 34 L 0 48 L 560 48 L 560 34 Z" fill="#F23645" fill-opacity="0.25"/>
    <circle cx="28" cy="24" r="12" fill="#F23645"/>
    <text x="28" y="28" font-size="13" font-weight="900" fill="#FFFFFF" text-anchor="middle">✕</text>
    <text x="50" y="29" font-size="15.5" font-weight="800" fill="#FF707E">CHỈ BÁO KỸ THUẬT: BẢN TIN PHÁT LẠI ĐI CHẬM</text>

    <!-- Biểu đồ chỉ báo trễ -->
    <g transform="translate(20, 65)">
      <rect width="520" height="150" rx="8" fill="#080B10" stroke="#48181E" stroke-width="1.2"/>
      
      <!-- Nến đã bay lên đỉnh -->
      <g opacity="0.3">
        <line x1="60" y1="90" x2="60" y2="130" stroke="#8E9BAE" stroke-width="2"/>
        <line x1="120" y1="75" x2="120" y2="120" stroke="#8E9BAE" stroke-width="2"/>
        <line x1="180" y1="50" x2="180" y2="105" stroke="#8E9BAE" stroke-width="2"/>
        <line x1="240" y1="20" x2="240" y2="85" stroke="#8E9BAE" stroke-width="2"/>
      </g>
      <!-- Nến chạm đỉnh rồi đảo chiều đỏ -->
      <line x1="300" y1="15" x2="300" y2="60" stroke="#F23645" stroke-width="2.5"/>
      <rect x="291" y="22" width="18" height="24" fill="#F23645" rx="1.5"/>

      <!-- Đường chỉ báo uốn cong lết theo sau -->
      <path d="M 30 115 Q 120 110 200 95 T 300 50" fill="none" stroke="#2962FF" stroke-width="3"/>
      <path d="M 30 120 Q 120 120 200 108 T 300 65" fill="none" stroke="#FF9800" stroke-width="2.5" stroke-dasharray="3,3"/>
      
      <!-- Tín hiệu Mua xuất hiện khi giá ĐÃ Ở ĐỈNH -->
      <circle cx="300" cy="50" r="6" fill="#F23645"/>
      <rect x="315" y="38" width="190" height="28" rx="4" fill="rgba(242,54,69,0.9)"/>
      <text x="410" y="56" font-size="12" font-weight="800" fill="#FFFFFF" text-anchor="middle">⚠️ MỚI BÁO MUA THÌ ĐÃ ĐỈNH!</text>
    </g>

    <!-- Hậu quả thực tế -->
    <g transform="translate(24, 235)">
      <rect width="512" height="65" rx="8" fill="#1C0E12" stroke="#3D181D"/>
      <text x="16" y="25" font-size="14" font-weight="800" fill="#FFFFFF">• Tín hiệu luôn có độ trễ 3 đến 10 nến:</text>
      <text x="16" y="48" font-size="13.5" fill="#FF707E">Phải chờ giá chạy xong mới tính toán, luôn đi sau thị trường.</text>

      <rect y="76" width="512" height="65" rx="8" fill="#1C0E12" stroke="#3D181D"/>
      <text x="16" y="101" font-size="14" font-weight="800" fill="#FFFFFF">• Đu đỉnh và cắt lỗ đúng đáy:</text>
      <text x="16" y="124" font-size="13.5" fill="#FF707E">Chỉ báo hô "Mua" thì giá kịch trần; hô "Bán" thì giá chạm đáy.</text>

      <rect y="152" width="512" height="65" rx="8" fill="#1C0E12" stroke="#3D181D"/>
      <text x="16" y="177" font-size="14" font-weight="800" fill="#FFFFFF">• Các chỉ báo đá nhau chan chát:</text>
      <text x="16" y="200" font-size="13.5" fill="#CAD4E0">Đường này báo tăng, đường kia báo giảm khiến trader rối trí.</text>

      <rect y="228" width="512" height="65" rx="8" fill="#1C0E12" stroke="#3D181D"/>
      <text x="16" y="253" font-size="14" font-weight="800" fill="#FFFFFF">• Mù tịt trước bẫy quét thanh khoản:</text>
      <text x="16" y="276" font-size="13.5" fill="#CAD4E0">Không thấy được các cú giật râu nến gom hàng của cá mập.</text>
    </g>
  </g>

  <!-- Watermark -->
  <g transform="translate(640, 690)" text-anchor="middle">
    <text font-size="13" fill="#CAD4E0" font-weight="600">
      Đóng dấu bản quyền: <tspan fill="#00E5FF" font-weight="800">PTvolume.com</tspan> • Chuyên Trang Naked Chart &amp; VSA Wyckoff
    </text>
  </g>
</svg>